<svg width="45" height="45" viewBox="0 0 45 45" fill="none" xmlns="http://www.w3.org/2000/svg">
<path fill-rule="evenodd" clip-rule="evenodd" d="M2.34375 22.5C2.34375 23.2767 2.97335 23.9062 3.75 23.9062H9.375C10.1516 23.9062 10.7812 23.2767 10.7812 22.5C10.7812 21.7233 10.1516 21.0938 9.375 21.0938H3.75C2.97335 21.0938 2.34375 21.7233 2.34375 22.5Z" fill="#F18413"/>
<path fill-rule="evenodd" clip-rule="evenodd" d="M34.2188 22.5C34.2188 23.2767 34.8483 23.9062 35.625 23.9062H41.25C42.0266 23.9062 42.6562 23.2767 42.6562 22.5C42.6562 21.7233 42.0266 21.0938 41.25 21.0938H35.625C34.8483 21.0938 34.2188 21.7233 34.2188 22.5Z" fill="#F18413"/>
<path fill-rule="evenodd" clip-rule="evenodd" d="M22.5 10.7812C23.2767 10.7812 23.9062 10.1517 23.9062 9.375V3.75C23.9062 2.97335 23.2767 2.34375 22.5 2.34375C21.7233 2.34375 21.0938 2.97335 21.0938 3.75V9.375C21.0938 10.1517 21.7233 10.7812 22.5 10.7812Z" fill="#F18413"/>
<path fill-rule="evenodd" clip-rule="evenodd" d="M22.5 42.6562C23.2767 42.6562 23.9062 42.0267 23.9062 41.25V35.625C23.9062 34.8484 23.2767 34.2188 22.5 34.2188C21.7233 34.2188 21.0938 34.8484 21.0938 35.625V41.25C21.0938 42.0267 21.7233 42.6562 22.5 42.6562Z" fill="#F18413"/>
<path fill-rule="evenodd" clip-rule="evenodd" d="M17.3438 22.5C17.3438 23.2767 17.9733 23.9062 18.75 23.9062H26.25C27.0266 23.9062 27.6562 23.2767 27.6562 22.5C27.6562 21.7233 27.0266 21.0938 26.25 21.0938H18.75C17.9733 21.0938 17.3438 21.7233 17.3438 22.5Z" fill="#F18413"/>
<path fill-rule="evenodd" clip-rule="evenodd" d="M22.5 27.6562C23.2767 27.6562 23.9062 27.0267 23.9062 26.25V18.75C23.9062 17.9734 23.2767 17.3438 22.5 17.3438C21.7233 17.3438 21.0938 17.9734 21.0938 18.75V26.25C21.0938 27.0267 21.7233 27.6562 22.5 27.6562Z" fill="#F18413"/>
<path fill-rule="evenodd" clip-rule="evenodd" d="M22.5 39.8438C19.3387 39.8438 16.3788 38.9992 13.8291 37.5243C13.1569 37.1354 12.2966 37.3652 11.9077 38.0374C11.5189 38.7097 11.7486 39.57 12.4209 39.9588C15.387 41.6747 18.8311 42.6562 22.5 42.6562C33.6319 42.6562 42.6562 33.632 42.6562 22.5C42.6562 11.3681 33.6319 2.34375 22.5 2.34375C11.368 2.34375 2.34375 11.3681 2.34375 22.5C2.34375 26.1689 3.32533 29.613 5.04115 32.5791C5.43004 33.2514 6.29028 33.4811 6.96256 33.0923C7.63483 32.7034 7.86456 31.8431 7.47567 31.1709C6.00081 28.6212 5.15625 25.6613 5.15625 22.5C5.15625 12.9214 12.9213 5.15625 22.5 5.15625C32.0786 5.15625 39.8438 12.9214 39.8438 22.5C39.8438 32.0787 32.0786 39.8438 22.5 39.8438Z" fill="#F18413"/>
</svg>
