<svg width="50" height="50" viewBox="0 0 50 50" fill="none" xmlns="http://www.w3.org/2000/svg">
<g clip-path="url(#clip0_14_18)">
<path d="M10.9375 50.0001C5.75983 50.0001 1.5625 45.8027 1.5625 40.6251V21.9396C1.5625 18.9525 2.98599 16.1442 5.39522 14.3783L19.4664 4.0644C22.7669 1.64523 27.2551 1.64627 30.5545 4.06697L44.6083 14.3781C47.0155 16.1442 48.4375 18.9513 48.4375 21.9369V40.6251C48.4375 45.8027 44.2402 50.0001 39.0625 50.0001H10.9375ZM21.6052 6.38363L21.3138 6.58485L7.24264 16.8987C5.73097 18.0067 4.80142 19.7303 4.69729 21.5895L4.6875 21.9396V40.6251C4.6875 43.9722 7.3187 46.7049 10.6256 46.8674L10.9375 46.8751L17.1875 46.8742V39.0626C17.1875 34.7478 20.6853 31.2501 25 31.2501C29.3147 31.2501 32.8125 34.7478 32.8125 39.0626V46.8742L39.0625 46.8751C42.4097 46.8751 45.1423 44.2439 45.3049 40.937L45.3125 40.6251V21.9369C45.3125 20.0636 44.4727 18.2957 43.036 17.1126L42.7597 16.8977L28.7059 6.58656C26.6019 5.04292 23.7728 4.97517 21.6052 6.38363ZM25 34.3751C22.5036 34.3751 20.463 36.3265 20.3205 38.7871L20.3125 39.0626V46.8751H29.6875V39.0626C29.6875 36.5662 27.7361 34.5256 25.2754 34.383L25 34.3751Z" fill="#F18413"/>
</g>
<defs>
<clipPath id="clip0_14_18">
<rect width="50" height="50" fill="white"/>
</clipPath>
</defs>
</svg>
