<?xml version="1.0" standalone="no"?>
<!DOCTYPE svg PUBLIC "-//W3C//DTD SVG 20010904//EN"
 "http://www.w3.org/TR/2001/REC-SVG-20010904/DTD/svg10.dtd">
<svg version="1.0" xmlns="http://www.w3.org/2000/svg"
 width="500.000000pt" height="500.000000pt" viewBox="0 0 500.000000 500.000000"
 preserveAspectRatio="xMidYMid meet">
<metadata>
Created by potrace 1.14, written by Peter Selinger 2001-2017
</metadata>
<g transform="translate(0.000000,500.000000) scale(0.100000,-0.100000)"
fill="#000000" stroke="none">
<path d="M2135 3282 c-214 -214 -743 -738 -1175 -1165 l-785 -777 175 0 176 0
955 947 c526 522 976 968 1002 992 l45 43 808 -796 c444 -438 810 -796 813
-796 3 0 42 34 86 75 l80 74 -895 895 -895 896 -390 -388z"/>
<path d="M4290 1755 l-95 -95 65 -65 65 -65 95 95 95 95 -65 65 -65 65 -95
-95z"/>
<path d="M4462 1577 c-88 -88 -92 -94 -75 -109 26 -24 68 -32 93 -18 20 11 28
6 89 -54 l67 -66 89 0 90 0 -110 110 c-103 103 -109 112 -106 145 2 34 -20 85
-37 85 -4 0 -49 -42 -100 -93z"/>
</g>
</svg>
