<svg width="51" height="51" viewBox="0 0 51 51" fill="none" xmlns="http://www.w3.org/2000/svg">
<g clip-path="url(#clip0_14_29)">
<path d="M0 51V6.375C0 2.85418 2.85418 0 6.375 0H27.0938C30.6146 0 33.4688 2.85418 33.4688 6.375L33.4686 10.4155C34.4063 9.87299 35.495 9.5625 36.6562 9.5625H44.625C48.1458 9.5625 51 12.4167 51 15.9375V51H0ZM30.2812 6.375C30.2812 4.69461 28.9809 3.31792 27.3316 3.19624L27.0938 3.1875H6.375C4.61459 3.1875 3.1875 4.61459 3.1875 6.375V47.8125H11.1562V41.4375C11.1562 39.6771 12.5833 38.25 14.3438 38.25H19.125C20.8854 38.25 22.3125 39.6771 22.3125 41.4375V47.8125H30.2812V6.375ZM19.125 41.4375H14.3438V47.8125H19.125V41.4375ZM44.625 12.75H36.6562C34.8958 12.75 33.4688 14.1771 33.4688 15.9375V47.8125H47.8125V15.9375C47.8125 14.2571 46.5122 12.8804 44.8629 12.7587L44.625 12.75ZM43.0312 41.4375C43.9115 41.4375 44.625 42.151 44.625 43.0312C44.625 43.9115 43.9115 44.625 43.0312 44.625H38.25C37.3698 44.625 36.6562 43.9115 36.6562 43.0312C36.6562 42.151 37.3698 41.4375 38.25 41.4375H43.0312ZM43.0312 35.0625C43.9115 35.0625 44.625 35.776 44.625 36.6562C44.625 37.5365 43.9115 38.25 43.0312 38.25H38.25C37.3698 38.25 36.6562 37.5365 36.6562 36.6562C36.6562 35.776 37.3698 35.0625 38.25 35.0625H43.0312ZM9.5625 30.2812C10.4427 30.2812 11.1562 30.9948 11.1562 31.875V33.4688C11.1562 34.349 10.4427 35.0625 9.5625 35.0625H7.96875C7.08855 35.0625 6.375 34.349 6.375 33.4688V31.875C6.375 30.9948 7.08855 30.2812 7.96875 30.2812H9.5625ZM17.5312 30.2812C18.4115 30.2812 19.125 30.9948 19.125 31.875V33.4688C19.125 34.349 18.4115 35.0625 17.5312 35.0625H15.9375C15.0573 35.0625 14.3438 34.349 14.3438 33.4688V31.875C14.3438 30.9948 15.0573 30.2812 15.9375 30.2812H17.5312ZM25.5 30.2812C26.3802 30.2812 27.0938 30.9948 27.0938 31.875V33.4688C27.0938 34.349 26.3802 35.0625 25.5 35.0625H23.9062C23.026 35.0625 22.3125 34.349 22.3125 33.4688V31.875C22.3125 30.9948 23.026 30.2812 23.9062 30.2812H25.5ZM43.0312 28.6875C43.9115 28.6875 44.625 29.401 44.625 30.2812C44.625 31.1615 43.9115 31.875 43.0312 31.875H38.25C37.3698 31.875 36.6562 31.1615 36.6562 30.2812C36.6562 29.401 37.3698 28.6875 38.25 28.6875H43.0312ZM9.5625 22.3125C10.4427 22.3125 11.1562 23.026 11.1562 23.9062V25.5C11.1562 26.3802 10.4427 27.0938 9.5625 27.0938H7.96875C7.08855 27.0938 6.375 26.3802 6.375 25.5V23.9062C6.375 23.026 7.08855 22.3125 7.96875 22.3125H9.5625ZM17.5312 22.3125C18.4115 22.3125 19.125 23.026 19.125 23.9062V25.5C19.125 26.3802 18.4115 27.0938 17.5312 27.0938H15.9375C15.0573 27.0938 14.3438 26.3802 14.3438 25.5V23.9062C14.3438 23.026 15.0573 22.3125 15.9375 22.3125H17.5312ZM25.5 22.3125C26.3802 22.3125 27.0938 23.026 27.0938 23.9062V25.5C27.0938 26.3802 26.3802 27.0938 25.5 27.0938H23.9062C23.026 27.0938 22.3125 26.3802 22.3125 25.5V23.9062C22.3125 23.026 23.026 22.3125 23.9062 22.3125H25.5ZM43.0312 22.3125C43.9115 22.3125 44.625 23.026 44.625 23.9062C44.625 24.7865 43.9115 25.5 43.0312 25.5H38.25C37.3698 25.5 36.6562 24.7865 36.6562 23.9062C36.6562 23.026 37.3698 22.3125 38.25 22.3125H43.0312ZM9.5625 14.3438C10.4427 14.3438 11.1562 15.0573 11.1562 15.9375V17.5312C11.1562 18.4115 10.4427 19.125 9.5625 19.125H7.96875C7.08855 19.125 6.375 18.4115 6.375 17.5312V15.9375C6.375 15.0573 7.08855 14.3438 7.96875 14.3438H9.5625ZM17.5312 14.3438C18.4115 14.3438 19.125 15.0573 19.125 15.9375V17.5312C19.125 18.4115 18.4115 19.125 17.5312 19.125H15.9375C15.0573 19.125 14.3438 18.4115 14.3438 17.5312V15.9375C14.3438 15.0573 15.0573 14.3438 15.9375 14.3438H17.5312ZM25.5 14.3438C26.3802 14.3438 27.0938 15.0573 27.0938 15.9375V17.5312C27.0938 18.4115 26.3802 19.125 25.5 19.125H23.9062C23.026 19.125 22.3125 18.4115 22.3125 17.5312V15.9375C22.3125 15.0573 23.026 14.3438 23.9062 14.3438H25.5ZM43.0312 15.9375C43.9115 15.9375 44.625 16.651 44.625 17.5312C44.625 18.4115 43.9115 19.125 43.0312 19.125H38.25C37.3698 19.125 36.6562 18.4115 36.6562 17.5312C36.6562 16.651 37.3698 15.9375 38.25 15.9375H43.0312ZM9.5625 6.375C10.4427 6.375 11.1562 7.08855 11.1562 7.96875V9.5625C11.1562 10.4427 10.4427 11.1562 9.5625 11.1562H7.96875C7.08855 11.1562 6.375 10.4427 6.375 9.5625V7.96875C6.375 7.08855 7.08855 6.375 7.96875 6.375H9.5625ZM17.5312 6.375C18.4115 6.375 19.125 7.08855 19.125 7.96875V9.5625C19.125 10.4427 18.4115 11.1562 17.5312 11.1562H15.9375C15.0573 11.1562 14.3438 10.4427 14.3438 9.5625V7.96875C14.3438 7.08855 15.0573 6.375 15.9375 6.375H17.5312ZM25.5 6.375C26.3802 6.375 27.0938 7.08855 27.0938 7.96875V9.5625C27.0938 10.4427 26.3802 11.1562 25.5 11.1562H23.9062C23.026 11.1562 22.3125 10.4427 22.3125 9.5625V7.96875C22.3125 7.08855 23.026 6.375 23.9062 6.375H25.5Z" fill="#F18413"/>
</g>
<defs>
<clipPath id="clip0_14_29">
<rect width="51" height="51" fill="white"/>
</clipPath>
</defs>
</svg>
