<svg width="49" height="49" viewBox="0 0 49 49" fill="none" xmlns="http://www.w3.org/2000/svg">
<path fill-rule="evenodd" clip-rule="evenodd" d="M24.5 3.41861C20.6574 3.41861 17.0596 4.44517 13.9605 6.23787C13.1434 6.71057 12.0978 6.43133 11.6251 5.61418C11.1524 4.79703 11.4316 3.7514 12.2488 3.2787C15.8541 1.19311 20.0404 0 24.5 0C38.0309 0 49 10.969 49 24.5C49 38.0309 38.0309 49 24.5 49C10.969 49 0 38.0309 0 24.5C0 20.0404 1.19311 15.8541 3.2787 12.2488C3.7514 11.4316 4.79703 11.1524 5.61418 11.6251C6.43133 12.0978 6.71057 13.1434 6.23787 13.9605C4.44517 17.0596 3.41861 20.6574 3.41861 24.5C3.41861 36.1428 12.8571 45.5814 24.5 45.5814C36.1428 45.5814 45.5814 36.1428 45.5814 24.5C45.5814 12.8571 36.1428 3.41861 24.5 3.41861ZM24.5 13.6744C25.444 13.6744 26.2093 14.4397 26.2093 15.3837V23.792L31.4063 28.989C32.0739 29.6565 32.0739 30.7388 31.4063 31.4063C30.7388 32.0739 29.6565 32.0739 28.989 31.4063L23.2913 25.7087C22.9708 25.3881 22.7907 24.9533 22.7907 24.5V15.3837C22.7907 14.4397 23.556 13.6744 24.5 13.6744Z" fill="#F18413"/>
</svg>
