<svg width="66" height="66" viewBox="0 0 66 66" fill="none" xmlns="http://www.w3.org/2000/svg">
<path d="M46.959 62.5597C46.0845 62.5597 45.2595 62.37 44.583 62.1802C42.8588 61.6852 40.8293 60.753 38.0078 59.4495L36.6135 58.806C35.475 58.2862 34.7325 57.9397 34.3695 57.9397C34.0148 57.9397 33.264 58.2862 32.1255 58.806L30.7313 59.4495C27.9098 60.7447 25.8803 61.6852 24.156 62.1802C22.7205 62.5927 20.6003 62.9805 18.7523 61.578C16.962 60.2167 16.665 58.0552 16.5908 56.5455C16.5083 54.6975 16.731 52.3957 17.0445 49.203L17.2013 47.619C17.3333 46.2495 17.4158 45.4245 17.2838 45.0202C17.16 44.616 16.665 44.0385 15.7658 42.9907L14.751 41.8027C12.705 39.4102 11.22 37.6777 10.2465 36.1267C9.45453 34.8645 8.47278 32.9422 9.14928 30.7725C9.83403 28.5697 11.7398 27.5962 13.1175 27.0517C14.784 26.3917 16.962 25.905 19.9733 25.2202C21.087 24.9727 22.1925 25.6657 22.44 26.7795C22.6875 27.8932 21.9945 28.9987 20.8808 29.2462C16.5495 30.228 13.4145 30.9375 13.0845 32.0017C12.738 33.1155 14.8913 35.6317 17.8778 39.1215L18.8925 40.3095C20.1053 41.7285 20.8395 42.5865 21.219 43.7992C21.5903 45.0037 21.483 46.1422 21.3015 48.0232L21.1448 49.6072C20.7075 54.0952 20.3693 57.6345 21.2438 58.2945C22.0523 58.905 25.2698 57.42 28.9988 55.704L30.393 55.0605C32.076 54.285 33.099 53.8147 34.3613 53.8147C35.6235 53.8147 36.6383 54.285 38.3295 55.0605L39.7238 55.704C43.4528 57.42 46.6785 58.905 47.4788 58.2945C48.3533 57.6345 48.0068 54.087 47.5778 49.6072C47.4705 48.477 48.2955 47.4622 49.434 47.355C50.5643 47.2477 51.579 48.0727 51.6863 49.2112C51.9915 52.404 52.2225 54.7057 52.14 56.5537C52.074 58.0635 51.777 60.225 49.9785 61.5862C49.0133 62.3205 47.9573 62.5597 46.959 62.5597ZM52.4205 42.5287C51.9503 42.5287 51.4718 42.3637 51.084 42.0337C50.2178 41.2912 50.1188 39.9877 50.853 39.1297C53.8395 35.64 55.9928 33.1237 55.6463 32.01C55.3163 30.9457 52.1895 30.2362 47.85 29.2627L46.365 28.9245C44.5665 28.5202 43.4775 28.2727 42.4628 27.5055C41.4645 26.7465 40.9118 25.7482 39.9878 24.1065L39.2205 22.7287C37.158 19.0245 35.3678 15.8235 34.3695 15.8235C33.3713 15.8235 31.581 19.0245 29.5185 22.7287C28.9658 23.727 27.7118 24.0817 26.7135 23.529C25.7153 22.9762 25.3605 21.7222 25.9133 20.724C27.456 17.952 28.578 15.9472 29.6835 14.4952C30.6075 13.2907 32.0925 11.6985 34.3695 11.6985C36.6465 11.6985 38.1315 13.299 39.0555 14.4952C40.161 15.939 41.283 17.9437 42.8258 20.724L43.593 22.1017C44.2448 23.2815 44.6408 23.991 44.9543 24.222C45.2513 24.453 46.0103 24.618 47.2725 24.9067L48.7575 25.245C51.7688 25.9297 53.9468 26.4165 55.6133 27.0765C56.991 27.621 58.8968 28.5945 59.5815 30.7972C60.258 32.967 59.2763 34.8892 58.4843 36.1515C57.5108 37.7025 56.034 39.4267 53.9798 41.8275C53.5838 42.2812 52.998 42.5287 52.4205 42.5287Z" fill="#F18413"/>
<path d="M13.7775 23.3722C13.1175 23.3722 12.5565 22.9102 12.4245 22.2667C12.2265 21.2685 11.451 18.4057 10.2795 17.2425C9.108 16.0792 6.24525 15.3202 5.23875 15.1305C4.59525 15.0067 4.125 14.4375 4.125 13.7775C4.125 13.1175 4.587 12.5565 5.2305 12.4245C6.22875 12.2265 9.0915 11.451 10.2547 10.2795C11.418 9.108 12.1935 6.17925 12.3667 5.23875C12.4905 4.59525 13.0515 4.125 13.7115 4.125C13.7115 4.125 13.7115 4.125 13.7197 4.125C14.3797 4.125 14.9407 4.587 15.0727 5.2305C15.2707 6.237 16.0462 9.0915 17.2177 10.2547C18.3892 11.418 21.252 12.177 22.2585 12.3667C22.902 12.4905 23.3722 13.0597 23.3722 13.7115C23.3722 14.3632 22.9102 14.9325 22.2667 15.0645C21.2685 15.2625 18.4057 16.038 17.2425 17.2095C16.0792 18.381 15.3202 21.2437 15.1305 22.2502C15.0067 22.902 14.4375 23.3722 13.7775 23.3722ZM9.90825 13.761C10.7662 14.1652 11.5912 14.6685 12.2183 15.2872C12.8453 15.906 13.3485 16.731 13.761 17.5807C14.1652 16.7227 14.6685 15.8977 15.2872 15.2708C15.906 14.6438 16.731 14.1405 17.5807 13.728C16.7227 13.3237 15.8977 12.8205 15.2708 12.2017C14.6438 11.583 14.1405 10.758 13.728 9.90825C13.3237 10.7662 12.8205 11.5912 12.2017 12.2183C11.583 12.8453 10.7662 13.3567 9.90825 13.761Z" fill="#F18413"/>
<path d="M52.2472 18.5625C51.1087 18.5625 50.1847 17.6385 50.1847 16.5V15.8152H49.5C48.3615 15.8152 47.4375 14.8912 47.4375 13.7527C47.4375 12.6142 48.3615 11.6902 49.5 11.6902H50.1847V11.0055C50.1847 9.86699 51.1087 8.94299 52.2472 8.94299C53.3857 8.94299 54.3097 9.86699 54.3097 11.0055V11.6902H54.9945C56.133 11.6902 57.057 12.6142 57.057 13.7527C57.057 14.8912 56.133 15.8152 54.9945 15.8152H54.3097V16.5C54.3097 17.6385 53.3857 18.5625 52.2472 18.5625Z" fill="#F18413"/>
</svg>
