<svg width="47" height="47" viewBox="0 0 47 47" fill="none" xmlns="http://www.w3.org/2000/svg">
<path d="M29.2554 2.99211C28.5057 3.30175 28.1489 4.16053 28.4585 4.9103C28.7681 5.66005 29.6269 6.01684 30.3767 5.70721L29.2554 2.99211ZM15.1518 29.6907C14.5773 30.2633 14.5759 31.1933 15.1486 31.7679C15.7214 32.3423 16.6513 32.3437 17.2258 31.7708L15.1518 29.6907ZM21.2599 27.7488C21.8345 27.176 21.8358 26.2462 21.263 25.6716C20.6904 25.0972 19.7604 25.0959 19.186 25.6685L21.2599 27.7488ZM25.5163 10.0981C26.0909 9.52539 26.0923 8.59542 25.5195 8.02098C24.9468 7.44654 24.0168 7.44513 23.4425 8.01786L25.5163 10.0981ZM38.7045 19.6157L27.2544 31.0314L29.3284 33.1117L40.7786 21.696L38.7045 19.6157ZM18.5705 31.0314L15.881 28.35L13.807 30.4302L16.4965 33.1117L18.5705 31.0314ZM34.3625 5.38543H35.4766V2.44793H34.3625V5.38543ZM41.6148 11.5009V12.6115H44.5523V11.5009H41.6148ZM35.4766 5.38543C37.311 5.38543 38.5394 5.38853 39.455 5.51126C40.3286 5.62836 40.694 5.82974 40.9325 6.06748L43.0066 3.98724C42.131 3.11431 41.043 2.76035 39.8453 2.59978C38.6893 2.44484 37.2281 2.44793 35.4766 2.44793V5.38543ZM44.5523 11.5009C44.5523 9.75491 44.5554 8.29724 44.4 7.14362C44.2386 5.94732 43.8828 4.86078 43.0066 3.98724L40.9325 6.06748C41.1705 6.30462 41.3716 6.66724 41.4887 7.53619C41.6117 8.44787 41.6148 9.67162 41.6148 11.5009H44.5523ZM15.881 28.35C14.5838 27.0565 13.7177 26.1888 13.1578 25.4572C12.6237 24.7592 12.5093 24.3611 12.5093 24.0272H9.57178C9.57178 25.2643 10.0913 26.2836 10.825 27.2424C11.5329 28.1673 12.5686 29.1956 13.807 30.4302L15.881 28.35ZM16.4965 33.1117C17.735 34.3464 18.7662 35.3789 19.6938 36.0847C20.6556 36.8161 21.6758 37.3323 22.9125 37.3323V34.3948C22.5735 34.3948 22.1723 34.2791 21.4724 33.7466C20.7382 33.1883 19.8677 32.3247 18.5705 31.0314L16.4965 33.1117ZM40.7786 21.696C42.3423 20.1368 43.4329 19.0862 44.0055 17.7079L41.2929 16.5809C40.997 17.2933 40.4386 17.8867 38.7045 19.6157L40.7786 21.696ZM41.6148 12.6115C41.6148 15.0567 41.5888 15.869 41.2929 16.5809L44.0055 17.7079C44.5784 16.3291 44.5523 14.8165 44.5523 12.6115H41.6148ZM34.3625 2.44793C32.15 2.44793 30.6358 2.42206 29.2554 2.99211L30.3767 5.70721C31.0933 5.4113 31.9109 5.38543 34.3625 5.38543V2.44793ZM17.2258 31.7708L21.2599 27.7488L19.186 25.6685L15.1518 29.6907L17.2258 31.7708ZM27.2544 31.0314C26.2531 32.0297 25.4997 32.7798 24.8523 33.3389C24.2025 33.8999 23.7646 34.1737 23.4211 34.3002L24.4363 37.0568C25.2743 36.7481 26.03 36.2031 26.7722 35.562C27.5172 34.9187 28.3543 34.0828 29.3284 33.1117L27.2544 31.0314ZM23.4211 34.3002C23.2402 34.367 23.0786 34.3948 22.9125 34.3948V37.3323C23.4427 37.3323 23.9471 37.2369 24.4363 37.0568L23.4211 34.3002ZM13.807 17.6243C12.8563 18.5722 12.0355 19.3895 11.3982 20.1168C10.7635 20.8412 10.2207 21.5744 9.8971 22.3793L12.6225 23.4751C12.7615 23.1295 13.0474 22.692 13.6075 22.0528C14.165 21.4165 14.9049 20.6777 15.881 19.7046L13.807 17.6243ZM9.8971 22.3793C9.68579 22.9047 9.57178 23.4497 9.57178 24.0272H12.5093C12.5093 23.8508 12.5414 23.6767 12.6225 23.4751L9.8971 22.3793ZM15.881 19.7046L25.5163 10.0981L23.4425 8.01786L13.807 17.6243L15.881 19.7046Z" fill="#F18413"/>
<path d="M10.9144 22.5829L11.9529 21.5442L11.9514 21.5427L10.9144 22.5829ZM19.4258 14.5355C20.1079 14.9745 21.0168 14.7774 21.4556 14.0953C21.8947 13.4132 21.6977 12.5044 21.0156 12.0654L19.4258 14.5355ZM5.28871 19.9147C6.03873 20.2237 6.89723 19.8661 7.20623 19.1162C7.51524 18.3662 7.15773 17.5077 6.40772 17.1987L5.28871 19.9147ZM10.2209 23.9665C10.7945 24.5401 11.7245 24.5401 12.2981 23.9665C12.8716 23.3929 12.8716 22.4631 12.2981 21.8895L10.2209 23.9665ZM11.0106 20.6048C10.4362 20.032 9.50624 20.0336 8.93352 20.6079C8.36081 21.1823 8.3622 22.1123 8.93664 22.6852L11.0106 20.6048ZM21.0156 12.0654L19.7834 11.2723L18.1936 13.7424L19.4258 14.5355L21.0156 12.0654ZM19.7834 11.2723C18.5664 10.4891 17.5842 9.85568 16.7388 9.40015C15.875 8.93467 15.0658 8.60454 14.171 8.47231L13.7416 11.3782C14.1712 11.4417 14.6422 11.6072 15.3454 11.9861C16.067 12.375 16.9387 12.9348 18.1936 13.7424L19.7834 11.2723ZM5.3945 16.7531C6.49716 15.6538 7.67988 14.4751 8.74274 13.5055C9.27378 13.021 9.75737 12.605 10.1722 12.2853C10.6098 11.948 10.8873 11.7839 11.0191 11.7292L9.8934 9.01594C9.38964 9.22498 8.86128 9.58686 8.37892 9.95865C7.87383 10.348 7.32354 10.824 6.763 11.3353C5.64274 12.3573 4.41167 13.585 3.32053 14.6729L5.3945 16.7531ZM14.171 8.47231C12.7323 8.25968 11.2529 8.45187 9.8934 9.01594L11.0191 11.7292C11.9017 11.363 12.8444 11.2456 13.7416 11.3782L14.171 8.47231ZM4.32435 19.5318L5.06585 19.8256L6.14797 17.0947L5.40647 16.8009L4.32435 19.5318ZM5.06585 19.8256C5.19044 19.8749 5.24036 19.8947 5.28871 19.9147L6.40772 17.1987C6.33677 17.1694 6.26557 17.1413 6.14797 17.0947L5.06585 19.8256ZM3.32053 14.6729C1.80518 16.1836 2.33948 18.7453 4.32435 19.5318L5.40647 16.8009C5.39775 16.7974 5.39421 16.7948 5.39366 16.7944C5.39291 16.7939 5.39391 16.7947 5.39366 16.7944C5.39274 16.7933 5.3882 16.7873 5.38635 16.7784C5.38451 16.7695 5.38573 16.7641 5.3859 16.7635C5.38567 16.7639 5.38592 16.7634 5.3859 16.7635C5.38602 16.7633 5.38816 16.7594 5.3945 16.7531L3.32053 14.6729ZM9.87579 23.6214L10.2209 23.9665L12.2981 21.8895L11.9529 21.5442L9.87579 23.6214ZM8.93664 22.6852L9.87736 23.623L11.9514 21.5427L11.0106 20.6048L8.93664 22.6852Z" fill="#F18413"/>
<path d="M24.4781 36.2294L23.4394 37.2681C23.4621 37.2908 23.4856 37.3127 23.5097 37.3339L24.4781 36.2294ZM34.9039 25.9127C34.463 25.2317 33.5536 25.0373 32.8727 25.4781C32.1918 25.9189 31.9973 26.8284 32.4381 27.5093L34.9039 25.9127ZM30.2467 41.7068C29.9463 40.9532 29.0919 40.5859 28.3385 40.8863C27.585 41.1867 27.2176 42.0411 27.518 42.7945L30.2467 41.7068ZM24.5337 38.2316C25.1437 38.7664 26.0716 38.7055 26.6064 38.0955C27.1412 37.4856 27.0801 36.5576 26.4703 36.0229L24.5337 38.2316ZM24.9659 34.6402C24.3923 34.0666 23.4623 34.0666 22.8887 34.6402C22.3151 35.2138 22.3151 36.1438 22.8887 36.7174L24.9659 34.6402ZM32.4381 27.5093L33.2336 28.7378L35.6993 27.1411L34.9039 25.9127L32.4381 27.5093ZM30.2142 41.4865L30.0495 41.6506L32.1236 43.7308L32.2883 43.5666L30.2142 41.4865ZM33.2336 28.7378C34.0438 29.9889 34.605 30.8578 34.9949 31.5769C35.3748 32.2778 35.5401 32.7461 35.6036 33.1726L38.5091 32.7406C38.3762 31.8466 38.0444 31.0386 37.5774 30.1771C37.1203 29.3339 36.4848 28.3545 35.6993 27.1411L33.2336 28.7378ZM32.2883 43.5666C33.3793 42.4788 34.6107 41.2513 35.6359 40.1345C36.1488 39.5756 36.6262 39.027 37.0167 38.5233C37.3896 38.0424 37.753 37.5152 37.9632 37.0119L35.2522 35.8804C35.1978 36.0106 35.0337 36.2869 34.6953 36.7232C34.3747 37.1367 33.9576 37.6188 33.4715 38.1483C32.499 39.208 31.3168 40.3871 30.2142 41.4865L32.2883 43.5666ZM35.6036 33.1726C35.7361 34.0646 35.6188 35.0021 35.2522 35.8804L37.9632 37.0119C38.5295 35.6548 38.7228 34.1776 38.5091 32.7406L35.6036 33.1726ZM26.4703 36.0229L25.4463 35.1251L23.5097 37.3339L24.5337 38.2316L26.4703 36.0229ZM30.0495 41.6506C30.0621 41.6383 30.0826 41.6255 30.1052 41.6191C30.1243 41.6136 30.1388 41.6144 30.149 41.6163C30.1592 41.6183 30.176 41.624 30.196 41.64C30.2191 41.6584 30.2375 41.6837 30.2467 41.7068L27.518 42.7945C28.2698 44.6805 30.7138 45.1364 32.1236 43.7308L30.0495 41.6506ZM25.5166 35.1909L24.9659 34.6402L22.8887 36.7174L23.4394 37.2681L25.5166 35.1909Z" fill="#F18413"/>
<path d="M27.2542 20.8145C27.8286 21.3873 28.7586 21.386 29.3314 20.8114C29.904 20.237 29.9027 19.3071 29.3283 18.7343L27.2542 20.8145ZM32.6332 18.7343C32.0588 19.3071 32.0574 20.237 32.63 20.8114C33.2028 21.386 34.1327 21.3873 34.7072 20.8145L32.6332 18.7343ZM34.7072 13.3715C32.6486 11.3191 29.3128 11.3191 27.2542 13.3715L29.3283 15.4518C30.2405 14.5424 31.721 14.5424 32.6332 15.4518L34.7072 13.3715ZM27.2542 13.3715C25.1933 15.4264 25.1933 18.7598 27.2542 20.8145L29.3283 18.7343C28.4186 17.8274 28.4186 16.3587 29.3283 15.4518L27.2542 13.3715ZM34.7072 20.8145C36.7682 18.7598 36.7682 15.4264 34.7072 13.3715L32.6332 15.4518C33.5428 16.3587 33.5428 17.8274 32.6332 18.7343L34.7072 20.8145Z" fill="#F18413"/>
</svg>
